<svg width="36" height="17" viewBox="0 0 36 17" fill="none" xmlns="http://www.w3.org/2000/svg">
<path d="M33.9566 0.66291C33.4571 0.670478 32.9576 0.753728 32.4808 0.897525C32.2235 0.980775 32.0494 1.23053 32.0645 1.50298V3.08474C30.8914 3.84914 29.5065 4.21998 28.1139 4.15186C27.7052 4.15186 27.3874 4.15186 27.1981 4.10646L23.2324 0.36018C22.9297 0.10286 22.5361 -0.0257996 22.1426 0.00447329C19.9932 0.00447329 15.0814 2.42631 12.4931 3.94752C9.42037 5.7639 3.18415 6.81588 3.1236 6.83102L2.99494 6.86886C-0.161014 8.1706 -0.236696 10.7741 0.179557 12.0153C1.0499 16.4881 10.9113 16.753 13.1591 16.753H34.7891C35.1221 16.753 35.3945 16.4805 35.3945 16.1475V12.9234C35.7124 12.5602 35.9168 12.1136 36 11.6368C36 11.6066 36 11.5763 36 11.546V2.46415C35.9773 1.32891 35.2129 0.66291 33.9566 0.66291ZM9.82905 6.41477L10.6313 7.86787C10.7978 8.16303 11.1686 8.26142 11.4638 8.09491C11.759 7.92841 11.8573 7.55757 11.6908 7.26241L10.9794 5.97581C11.4941 5.77903 11.986 5.56712 12.4401 5.33251L13.4542 6.87643C13.6359 7.15645 14.0067 7.2397 14.2867 7.06563C14.5668 6.884 14.65 6.51315 14.4759 6.23313C14.4759 6.22556 14.4684 6.22556 14.4684 6.21799L13.5148 4.75732C13.9537 4.50757 14.4003 4.25782 14.8619 4.01564L16.0728 5.7866C16.2469 6.0742 16.6253 6.15745 16.9053 5.98338C17.1929 5.80931 17.2762 5.4309 17.1021 5.15087C17.0946 5.13574 17.0794 5.11303 17.0643 5.09789L15.929 3.46316C16.4664 3.19827 17.0113 2.93338 17.5411 2.69876L18.9563 4.75732C19.1455 5.03735 19.5164 5.11303 19.7964 4.92383C20.0764 4.73462 20.1521 4.36378 19.9629 4.08375C19.9629 4.07618 19.9553 4.07618 19.9553 4.06861L18.699 2.25224C19.7888 1.7376 20.9468 1.4046 22.1426 1.25323C22.2258 1.2381 22.3166 1.2381 22.3999 1.25323L24.8217 3.5237C22.4226 6.73263 19.0926 9.10906 15.2857 10.3275C13.6132 9.78263 11.8876 9.41179 10.1318 9.21501C8.57273 9.10906 7.08935 8.51117 5.89357 7.50459C7.10449 7.2397 8.48191 6.87643 9.82905 6.41477ZM3.38849 8.01923C3.53985 8.01923 3.92583 7.92084 4.46318 7.81489C5.96169 9.3361 7.9597 10.2594 10.0939 10.4184C12.0844 10.5167 16.2848 11.8563 19.1758 12.8402H16.5269C5.56057 12.8856 2.26839 12.0153 1.28452 11.4098C1.14072 10.8649 0.943948 9.04851 3.38849 8.01923ZM34.1836 15.5345H13.4467C10.7826 15.5723 4.4329 15.1561 2.15487 13.0672C4.04692 13.5667 7.97484 14.089 16.5496 14.089C18.5628 14.089 20.5911 14.089 22.5134 14.0133C24.3298 13.9679 26.0402 13.9149 27.5766 13.8543C31.2926 13.7181 33.8885 13.5667 33.9187 13.5592C34.002 13.5667 34.0852 13.5667 34.1761 13.5592L34.1836 15.5345ZM34.7891 11.493C34.7512 11.6671 34.562 12.3634 33.8809 12.3634C33.8355 12.3634 31.618 12.4996 28.3561 12.6283C29.5216 8.47332 33.23 7.10348 34.7891 6.70993V11.493ZM34.7891 5.46874C33.1846 5.84715 28.3334 7.41377 27.0846 12.6813C25.7072 12.7267 24.1936 12.7796 22.6118 12.8175C22.0745 12.6131 19.7813 11.7655 17.2156 10.9406C20.5684 9.54045 23.4973 7.27754 25.6921 4.38648L26.4792 5.1433C26.57 5.22655 26.6835 5.27953 26.8046 5.30224C27.2284 5.35521 27.6522 5.38549 28.0836 5.37792C29.5367 5.37792 31.5802 5.09789 33.0484 3.78102C33.177 3.6675 33.2452 3.501 33.2452 3.3345V1.94194C33.4646 1.89653 33.6917 1.87383 33.9263 1.86626C34.7588 1.86626 34.7664 2.22953 34.7739 2.47172L34.7891 5.46874Z" fill="black"/>
</svg>
